<?xml version="1.0" encoding="utf-8"?>
<!-- Generator: Adobe Illustrator 16.0.0, SVG Export Plug-In . SVG Version: 6.00 Build 0)  -->
<!DOCTYPE svg PUBLIC "-//W3C//DTD SVG 1.1//EN" "http://www.w3.org/Graphics/SVG/1.1/DTD/svg11.dtd">
<svg version="1.1" id="Layer_1" xmlns="http://www.w3.org/2000/svg" xmlns:xlink="http://www.w3.org/1999/xlink" x="0px" y="0px"
	 width="612px" height="792px" viewBox="0 0 612 792" enable-background="new 0 0 612 792" xml:space="preserve">
<g>
	<g>
		<path fill="#FFFFFF" d="M50.295,401.814c-4.229,6.948-16.312,9.516-23.864,7.553c2.266,1.358,6.495,1.963,9.817,2.114
			c-1.963,1.963-4.229,3.021-5.588,3.474c3.323,0.453,10.875-3.474,12.838-5.438c-0.453,0.906-5.739,5.438-6.646,6.344
			c4.984-1.208,8.458-5.136,12.385-7.854c-1.359,5.588-3.323,11.327-1.813,17.52c1.511,7.099,2.87,11.177,0,18.427
			c-2.114,5.891-6.192,10.875-9.062,16.765c-1.51,2.87-3.172,3.776,0.302,6.193c2.417,1.51,5.588,0.604,7.4-1.511
			c2.87-3.776,2.417-11.781,4.38-16.161c2.114-5.588,6.495-9.969,7.854-15.858c1.057-4.683,0-8.609,2.265-12.083
			C56.941,414.502,53.769,409.216,50.295,401.814C50.295,401.814,50.295,401.664,50.295,401.814z"/>
	</g>
	<g>
		<path fill="#FFFFFF" d="M104.064,404.08c2.87,5.589,2.568,10.573,4.078,15.859s6.192,7.4,7.854,13.442
			c1.51,3.322,2.266,7.099,3.927,10.724c1.813,1.057,3.776-0.303,3.776-2.568c11.479-0.906-4.682-13.441-4.984-15.254
			c-1.511-5.589-1.813-14.349-1.813-19.938c0-6.494,3.172-12.083,2.114-19.03c-0.604-6.797-3.171-12.838-6.796-18.427
			c-7.401-11.479-10.724-18.729-22.958-24.921c-8.458-4.38-21.75-12.234-31.416-11.025c-3.474,0.302-15.406,1.359-17.822,3.172
			c-1.511-4.38-11.479-4.38-15.557-4.984c-5.588-0.906-11.479-2.115-15.557-6.797c4.38,7.854,10.875,14.046,18.426,13.14
			l-1.208,0.604c-1.51,1.51-4.38,2.114-6.192,4.078c-2.115,2.115-3.776,5.891-5.287,8.76c-0.453,0.906-0.755,1.662-1.208,2.568l0,0
			c0,0,0,0,0,0.151s-0.151,0.151-0.151,0.302c-4.833,1.51-10.875,0.302-13.291-3.474c0.906,4.38,2.266,8.307,7.25,9.364
			c1.359,0.302,3.172,0,4.229-0.604c-1.208,3.323-1.813,5.286-3.323,8.609c-2.114,4.38-9.062,10.875-5.89,16.161
			c3.776,7.099,9.968,2.567,14.953,0.906c2.417-0.906,5.588-0.302,8.458-0.302c3.172-0.302,5.286-1.208,8.76-2.114
			c6.796-2.115,11.781,3.776,14.65,10.271c1.057,2.417,1.51,4.833,1.51,7.249c3.776,6.042,7.099,11.781,12.385,18.88l0,0
			c4.38,3.776,5.588,6.797,4.38,12.083c-0.604,2.87-3.776,9.969-0.906,12.385c3.172,2.87,9.968-4.682,10.875-7.099
			c1.208-4.38-3.474-8.155-1.813-12.838c0-0.151,0,0,0-0.151c0.151-17.671-14.65-23.108-24.77-36.097
			c7.099,6.192,12.385,9.667,19.937,16.462c3.776,3.172,8.458,11.479,7.703,17.067c-0.151,0.755-0.151,1.511-0.302,2.114
			c3.625-2.114,8.76-7.099,12.687-5.89c0,0,0,0,0.151,0.15c2.115,7.099,10.875,8.761,14.651,14.65
			c3.474,5.589,4.078,14.047,6.495,20.239c1.51,4.078-2.266,14.953,7.4,13.744c9.364-1.208,1.511-10.874,0.604-14.952
			c-0.302-1.209-0.604-2.568-0.906-3.776c-1.662-1.963-2.719-5.438-3.172-7.4c-0.604-2.87-2.87-5.891-3.776-8.761
			c-1.51-3.474-4.078-4.682-5.891-7.854c-3.171-4.682-1.51-12.083-3.474-17.822c-1.813-5.136-4.229-11.63-8.005-15.406
			C99.231,393.81,101.647,398.945,104.064,404.08z"/>
	</g>
</g>
<text transform="matrix(1 0 0 1 139.5 414.5)" fill="#FFFFFF" font-family="'Montserrat-BoldItalic'" font-size="72">SDSU CRYPTOCURRENCY CLUB</text>
</svg>
